<svg xmlns="http://www.w3.org/2000/svg" viewBox="0 0 48 48"><defs><style>.cls-1{fill:#201602;}</style></defs><title>Asset 40ldpi</title><g id="Layer_2" data-name="Layer 2"><g id="layer_1-2" data-name="layer 1"><path class="cls-1" d="M20,48C10.37,48,0,43.3,0,33,0,26.14,8,14.54,12.23,9.37l1.54,1.26C9,16.42,2,27.16,2,33c0,8.93,9.33,13,18,13,7.93,0,16.92-3.6,17.91-11.51l2,.25C38.76,43.85,28.78,48,20,48Z"/><path class="cls-1" d="M29.6,15.09c-1.12-1.59-2.29-3.13-3.37-4.46l1.54-1.26c1.12,1.36,2.31,2.94,3.47,4.57Z"/><path class="cls-1" d="M20,43C11,43,6,39.45,6,33c0-4.67,4.52-14.15,8.23-18.64l1.54,1.28C12.35,19.79,8,28.79,8,33c0,6.61,6.53,8,12,8Z"/><path class="cls-1" d="M20,12c-2.95,0-5.91-.37-7.43-1.11a1,1,0,0,1-.52-.58l-3-9A1,1,0,0,1,10.52.14c4.07,2.46,14.89,2.46,19,0a1,1,0,0,1,1.15.08A1,1,0,0,1,31,1.32l-3,9a1,1,0,0,1-.52.58C25.91,11.64,23,12,20,12ZM13.81,9.26c2.72,1,9.66,1,12.38,0l2.15-6.43a30.5,30.5,0,0,1-16.68,0Z"/><path class="cls-1" d="M36,31a4,4,0,0,1-4-4h2a2,2,0,1,0,2-2,4,4,0,1,1,4-4H38a2,2,0,1,0-2,2,4,4,0,0,1,0,8Z"/><rect class="cls-1" x="35" y="30" width="2" height="3"/><rect class="cls-1" x="35" y="15" width="2" height="3"/><rect class="cls-1" x="42" y="23" width="2" height="2"/><rect class="cls-1" x="28" y="23" width="2" height="2"/><path class="cls-1" d="M25,41a.89.89,0,0,1-.36-.07A1,1,0,0,1,24,40V24a12,12,0,1,1,7,10.92l-5.28,5.76A1,1,0,0,1,25,41ZM36,14A10,10,0,0,0,26,24V37.43L30.05,33a1,1,0,0,1,1.21-.2A10,10,0,1,0,36,14Z"/></g></g></svg>